<?xml version="1.0" encoding="UTF-8" standalone="no"?><svg xmlns="http://www.w3.org/2000/svg" xmlns:xlink="http://www.w3.org/1999/xlink" fill="#036cfc" height="36" preserveAspectRatio="xMidYMid meet" version="1" viewBox="7.0 7.0 36.0 36.0" width="36" zoomAndPan="magnify"><g id="change1_1"><path d="M 25 7 C 15.060993 7 7 15.060993 7 25 C 7 34.939007 15.060993 43 25 43 C 34.939007 43 43 34.939007 43 25 C 43 15.060993 34.939007 7 25 7 z M 25 9 C 33.860993 9 41 16.139007 41 25 C 41 33.860993 33.860993 41 25 41 C 16.139007 41 9 33.860993 9 25 C 9 16.139007 16.139007 9 25 9 z M 24 14 L 24 16.199219 C 22.4 16.399219 19.5 17.799219 19.5 21.199219 C 19.5 27.599219 28.800781 24.299609 28.800781 29.099609 C 28.800781 30.699609 28.1 32.199219 25 32.199219 C 21.9 32.199219 21 29.8 21 28.5 L 19 28.5 C 19.3 32.8 22.3 33.799609 24 34.099609 L 24 36 L 26 36 L 26 34.099609 C 27.5 33.999609 31 32.900391 31 28.900391 C 31 25.600391 28.299219 24.699609 25.699219 24.099609 C 23.599219 23.599609 21.699219 23.1 21.699219 21 C 21.699219 20.1 22.099609 18.099609 25.099609 18.099609 C 27.199609 18.099609 28.2 19.4 28.5 21 L 30.5 21 C 29.9 18.8 28.9 16.800781 26 16.300781 L 26 14 L 24 14 z" fill="inherit"/></g></svg>